<svg version="1.1" id="Selfmade_by_NICF-Nettie" xmlns="http://www.w3.org/2000/svg"
     xmlns:xlink="http://www.w3.org/1999/xlink"
     x="0px" y="0px" viewBox="0 0 3185.9 1061.4" style="enable-background:new 0 0 3000.9z 1061.4;" xml:space="preserve">
<style type="text/css">
	.st0{fill:#FFFFFF;}
	.st1{fill-rule:evenodd;clip-rule:evenodd;fill:#A78558;}
	.st2{fill:#A78558;}
</style>
  <g id="Version_2">
	<polygon class="st0" points="2198.3,411.2 2124.9,411.2 2198.3,502.8 	"/>
    <path class="st0" d="M1853.8,411.2v237.7c26.7-2.5,47.1-13.8,61.1-34.2c14-20.3,21-48.5,21-84.6c0-36.1-7-64.3-21-84.5
		C1900.9,425.4,1880.5,413.9,1853.8,411.2z"/>
    <rect x="1760.5" y="411.2" class="st0" width="75.4" height="237.7"/>
    <rect x="1949.5" y="411.2" class="st0" width="75.4" height="237.7"/>
    <polygon class="st0" points="2124.9,648.9 2199.4,648.9 2199.4,541.9 	"/>
    <polygon class="st0" points="2170.3,476.2 2124,525.2 2170.3,574.2 	"/>
    <rect x="2044.5" y="411.2" class="st0" width="74.2" height="237.7"/>
    <path class="st0" d="M1632,651.5c26.5-2.2,46.8-13.7,60.8-34.5c14-20.8,21-49.6,21-86.7c0-37.1-7-66-21-86.7
		c-14-20.7-34.3-32.2-60.8-34.6V651.5z"/>
    <path class="st0" d="M1553.7,443.6c-14,20.7-21,49.6-21,86.7c0,37,7,65.9,21,86.7c14,20.8,34.2,32.3,60.8,34.5V409
		C1587.9,411.4,1567.7,422.9,1553.7,443.6z"/>
    <polygon class="st0" points="1519,523.6 1519,411.2 1468.6,411.2 	"/>
    <rect x="1390.8" y="411.2" class="st0" width="75.5" height="237.7"/>
    <polygon class="st0" points="1338.3,523.6 1388.5,411.2 1338.3,411.2 	"/>
    <polygon class="st0" points="922.5,632 891.5,496.6 856.2,649.3 917.9,649.3 	"/>
    <polygon class="st0" points="568,523.9 618.1,411.6 568,411.6 	"/>
    <polygon class="st0" points="900.8,457.7 944.6,649.3 1014.4,649.3 960.4,411.6 911.7,411.6 	"/>
    <polygon class="st0" points="1272.2,649.3 1272.2,542.2 1197.7,649.3 	"/>
    <polygon class="st0" points="1271,411.6 1197.7,411.6 1271,503.2 	"/>
    <rect x="1117.3" y="411.6" class="st0" width="74.2" height="237.7"/>
    <polygon class="st0" points="1243.1,476.5 1196.8,525.5 1243.1,574.6 	"/>
    <polygon class="st0" points="1103.4,649.3 1049.7,411.6 1001,411.6 990.1,457.7 1033.8,649.3 	"/>
    <rect x="620.4" y="411.6" class="st0" width="75.5" height="237.7"/>
    <polygon class="st0" points="748.7,523.9 748.7,411.6 698.2,411.6 	"/>
    <rect x="768.3" y="411.6" class="st0" width="75.4" height="237.7"/>
    <g id="No_1_">
		<path class="st0" d="M500.3,617.2c14-20.8,21-49.6,21-86.7c0-37.1-7-66-21-86.7c-14-20.7-34.3-32.2-60.8-34.6v242.5
			C466,649.4,486.3,637.9,500.3,617.2z"/>
      <polygon class="st0" points="325.5,649.1 325.5,630.9 232.7,411.4 145.9,411.4 145.9,426.6 242.5,649.1 		"/>
      <polygon class="st0" points="209.1,618.7 145.9,474.7 145.9,649.1 209.1,649.1 		"/>
      <polygon class="st0" points="325.5,411.4 263.5,411.4 263.5,444 325.5,585.9 		"/>
      <path class="st0" d="M421.9,651.7V409.2c-26.5,2.3-46.8,13.9-60.8,34.6c-14,20.7-21,49.6-21,86.7c0,37,7,65.9,21,86.7
			C375.1,637.9,395.4,649.4,421.9,651.7z"/>
	</g>
    <g>
		<g>
			<path class="st1" d="M2368.5,651.5c-37.2,0.5-63.7-29.5-61.7-93.9c2-64.5,60.7-155.9,125.9-148.3c39.8,6.1,58.6,43.7,53.5,99
				C2481.2,563.7,2441.4,650.5,2368.5,651.5z M2427.7,517.5c11.7-35,18.4-83.3,3.6-83.8c-31.6-2.5-72.9,127-78,143.7
				c-5.1,16.8-9.2,48,5.1,47.7C2382.3,624.6,2415.9,552.5,2427.7,517.5z"/>
      <path class="st1" d="M2554.6,651.5c-37.2,0.5-63.7-29.5-61.7-93.9c2-64.5,60.7-155.9,125.9-148.3c39.8,6.1,58.6,43.7,53.5,99
				C2667.3,563.7,2627.5,650.5,2554.6,651.5z M2613.8,517.5c11.7-35,18.4-83.3,3.6-83.8c-31.6-2.5-72.9,127-78,143.7
				c-5.1,16.8-9.2,48,5.1,47.7C2568.4,624.6,2602,552.5,2613.8,517.5z"/>
      <path class="st1" d="M2736.6,646.9h-63.2c9.7-31.5,22.9-59.9,51-94.5c28-34.5,77-88.4,78-108.7h-75l-16.3,34.5h-33.7
				c0,0,11.7-45.2,26.5-67h161.6c1,17.8-4.6,53.8-45.4,103.6C2779.5,564.7,2753,595.7,2736.6,646.9z"/>
      <path class="st1" d="M2988,458h-120.3c0,0,9.7-11.2,11.2-47.7h200.4c0,0,5.6,21.8-17.3,36.1c0,0-47.9,0-54,0
				C3001.8,446.4,2995.1,447.4,2988,458z"/>
      <path class="st1" d="M2863.1,467.7h116.8c0,0-5.1,13.2-25,15.2c-5.1,0.5-15.8,3.6-19.9,11.7c-3,5.9-19.4,33-24.5,39.6
				c-5.1,6.6-12.2,16.2-38.2,16.2c-26,0-65.8,0-65.8,0s7.1-12.2,11.2-13.2c0,0,51,0,56.6,0c5.6,0,17.3-2,25.5-16.8
				c8.2-14.7,13.8-30,13.8-30h-36.2c0,0-6.6,10.2-4.1,21.8c1.5,4.1,3.1,6.6,1.5,7.6C2873.3,521,2843.2,502.2,2863.1,467.7z"/>
		</g>
      <g>
			<path class="st2" d="M2758.6,644h-2.5l3.9-9.5h-3.6l0.8-2l9.6,0l-0.8,2l-3.6,0L2758.6,644z"/>
        <path class="st2" d="M2774.9,644l-2.3,0l3.9-9.6h0l-6.1,9.6h-2.4l1.8-9.6h0l-3.9,9.6l-2.3,0l4.7-11.5l3.6,0l-1.6,9.1h0l5.8-9.1
				h3.6L2774.9,644z"/>
		</g>
	</g>
</g>
</svg>
