<svg xmlns="http://www.w3.org/2000/svg" width="30" height="30" fill="#1a1a1a" class="bi bi-bookmark-plus-fill" viewBox="0 0 16 16">
  <path opacity="0.9" fill-rule="evenodd" d="M2 15.5V2a2 2 0 0 1 2-2h8a2 2 0 0 1 2 2v13.5a.5.5 0 0 1-.74.439L8 13.069l-5.26 2.87A.5.5 0 0 1 2 15.5m6.5-11a.5.5 0 0 0-1 0V6H6a.5.5 0 0 0 0 1h1.5v1.5a.5.5 0 0 0 1 0V7H10a.5.5 0 0 0 0-1H8.5z"/>
  <path fill="#fff" d="M8 4a.5.5 0 0 1 .5.5V6H10a.5.5 0 0 1 0 1H8.5v1.5a.5.5 0 0 1-1 0V7H6a.5.5 0 0 1 0-1h1.5V4.5A.5.5 0 0 1 8 4"/>
</svg>